<?xml version="1.0" encoding="UTF-8" standalone="no"?>
<!DOCTYPE svg PUBLIC "-//W3C//DTD SVG 1.1//EN"
 "http://www.w3.org/Graphics/SVG/1.1/DTD/svg11.dtd">
<!-- Generated by graphviz version 12.0.0 (20240803.0821)
 -->
<!-- Title: dag Pages: 1 -->
<svg width="1384pt" height="618pt"
 viewBox="0.00 0.00 1384.37 618.15" xmlns="http://www.w3.org/2000/svg" xmlns:xlink="http://www.w3.org/1999/xlink">
<g id="graph0" class="graph" transform="scale(1 1) rotate(0) translate(4 614.15)">
<title>dag</title>
<polygon fill="white" stroke="none" points="-4,4 -4,-614.15 1380.37,-614.15 1380.37,4 -4,4"/>
<!-- v0 -->
<g id="node1" class="node">
<title>v0</title>
<ellipse fill="black" stroke="black" cx="1228.87" cy="-548.7" rx="1.8" ry="1.8"/>
<text text-anchor="middle" x="1162.57" y="-554.45" font-family="Times,serif" font-size="14.00">Channel.fromPath</text>
</g>
<!-- v9 -->
<g id="node2" class="node">
<title>v9</title>
<ellipse fill="none" stroke="black" cx="1074.87" cy="-488.25" rx="3.6" ry="3.6"/>
<text text-anchor="middle" x="1041.27" y="-495.8" font-family="Times,serif" font-size="14.00">combine</text>
</g>
<!-- v0&#45;&gt;v9 -->
<g id="edge1" class="edge">
<title>v0&#45;&gt;v9</title>
<path fill="none" stroke="black" d="M1227.54,-547.19C1215.39,-542.58 1123.44,-507.68 1088.38,-494.38"/>
<polygon fill="black" stroke="black" points="1089.76,-491.16 1079.17,-490.88 1087.27,-497.7 1089.76,-491.16"/>
<text text-anchor="middle" x="1186.62" y="-513.8" font-family="Times,serif" font-size="14.00">r_lib</text>
</g>
<!-- v12 -->
<g id="node14" class="node">
<title>v12</title>
<ellipse fill="none" stroke="black" cx="948.87" cy="-275.6" rx="3.6" ry="3.6"/>
<text text-anchor="middle" x="915.27" y="-283.15" font-family="Times,serif" font-size="14.00">combine</text>
</g>
<!-- v0&#45;&gt;v12 -->
<g id="edge16" class="edge">
<title>v0&#45;&gt;v12</title>
<path fill="none" stroke="black" d="M1230.88,-547.66C1246.29,-547.24 1344.87,-542.47 1344.87,-489.25 1344.87,-489.25 1344.87,-489.25 1344.87,-353.8 1344.87,-274.67 1036.41,-275.08 963.97,-276.27"/>
<polygon fill="black" stroke="black" points="964.23,-272.76 954.3,-276.46 964.37,-279.76 964.23,-272.76"/>
<text text-anchor="middle" x="1360.62" y="-424.98" font-family="Times,serif" font-size="14.00">r_lib</text>
</g>
<!-- v10 -->
<g id="node13" class="node">
<title>v10</title>
<ellipse fill="none" stroke="black" cx="1074.87" cy="-429.65" rx="233.77" ry="18"/>
<text text-anchor="middle" x="1074.87" y="-424.98" font-family="Times,serif" font-size="14.00">DOWNLOAD_DATA:GWAS_CATALOG_SETUP</text>
</g>
<!-- v9&#45;&gt;v10 -->
<g id="edge13" class="edge">
<title>v9&#45;&gt;v10</title>
<path fill="none" stroke="black" d="M1074.87,-484.21C1074.87,-479.39 1074.87,-469.52 1074.87,-459.55"/>
<polygon fill="black" stroke="black" points="1078.37,-459.62 1074.87,-449.62 1071.37,-459.62 1078.37,-459.62"/>
</g>
<!-- v1 -->
<g id="node3" class="node">
<title>v1</title>
<ellipse fill="black" stroke="black" cx="876.87" cy="-548.7" rx="1.8" ry="1.8"/>
<text text-anchor="middle" x="810.57" y="-554.45" font-family="Times,serif" font-size="14.00">Channel.fromPath</text>
</g>
<!-- v1&#45;&gt;v9 -->
<g id="edge2" class="edge">
<title>v1&#45;&gt;v9</title>
<path fill="none" stroke="black" d="M878.58,-547.19C894.58,-542.47 1018.22,-505.97 1060.64,-493.45"/>
<polygon fill="black" stroke="black" points="1061.43,-496.87 1070.03,-490.68 1059.45,-490.15 1061.43,-496.87"/>
<text text-anchor="middle" x="1026.87" y="-513.8" font-family="Times,serif" font-size="14.00">lftp_bin</text>
</g>
<!-- v13 -->
<g id="node15" class="node">
<title>v13</title>
<ellipse fill="none" stroke="black" cx="906.87" cy="-196.4" rx="3.6" ry="3.6"/>
<text text-anchor="middle" x="873.27" y="-203.95" font-family="Times,serif" font-size="14.00">combine</text>
</g>
<!-- v1&#45;&gt;v13 -->
<g id="edge18" class="edge">
<title>v1&#45;&gt;v13</title>
<path fill="none" stroke="black" d="M875.29,-547.18C865.43,-543.8 812.87,-524.16 812.87,-489.25 812.87,-489.25 812.87,-489.25 812.87,-274.6 812.87,-233.96 865.99,-210.79 892.37,-201.8"/>
<polygon fill="black" stroke="black" points="893.36,-205.15 901.85,-198.82 891.27,-198.47 893.36,-205.15"/>
<text text-anchor="middle" x="839.87" y="-380.35" font-family="Times,serif" font-size="14.00">lftp_bin</text>
</g>
<!-- v2 -->
<g id="node4" class="node">
<title>v2</title>
<ellipse fill="black" stroke="black" cx="700.87" cy="-591.1" rx="1.8" ry="1.8"/>
<text text-anchor="middle" x="634.57" y="-596.85" font-family="Times,serif" font-size="14.00">Channel.fromPath</text>
</g>
<!-- v3 -->
<g id="node5" class="node">
<title>v3</title>
<ellipse fill="none" stroke="black" cx="700.87" cy="-548.7" rx="3.6" ry="3.6"/>
<text text-anchor="middle" x="668.39" y="-556.25" font-family="Times,serif" font-size="14.00">splitCsv</text>
</g>
<!-- v2&#45;&gt;v3 -->
<g id="edge3" class="edge">
<title>v2&#45;&gt;v3</title>
<path fill="none" stroke="black" d="M700.87,-589.1C700.87,-585.6 700.87,-573.56 700.87,-563.7"/>
<polygon fill="black" stroke="black" points="704.37,-563.85 700.87,-553.85 697.37,-563.85 704.37,-563.85"/>
</g>
<!-- v4 -->
<g id="node6" class="node">
<title>v4</title>
<ellipse fill="none" stroke="black" cx="700.87" cy="-488.25" rx="3.6" ry="3.6"/>
<text text-anchor="middle" x="681.89" y="-495.8" font-family="Times,serif" font-size="14.00">map</text>
</g>
<!-- v3&#45;&gt;v4 -->
<g id="edge4" class="edge">
<title>v3&#45;&gt;v4</title>
<path fill="none" stroke="black" d="M700.87,-544.88C700.87,-537.57 700.87,-517.6 700.87,-503.69"/>
<polygon fill="black" stroke="black" points="704.37,-503.69 700.87,-493.69 697.37,-503.69 704.37,-503.69"/>
</g>
<!-- v5 -->
<g id="node7" class="node">
<title>v5</title>
<ellipse fill="none" stroke="black" cx="700.87" cy="-429.65" rx="3.6" ry="3.6"/>
<text text-anchor="middle" x="672.52" y="-437.2" font-family="Times,serif" font-size="14.00">branch</text>
</g>
<!-- v4&#45;&gt;v5 -->
<g id="edge5" class="edge">
<title>v4&#45;&gt;v5</title>
<path fill="none" stroke="black" d="M700.87,-484.21C700.87,-476.99 700.87,-458.45 700.87,-445.21"/>
<polygon fill="black" stroke="black" points="704.37,-445.22 700.87,-435.22 697.37,-445.22 704.37,-445.22"/>
</g>
<!-- v6 -->
<g id="node8" class="node">
<title>v6</title>
<ellipse fill="none" stroke="black" cx="245.87" cy="-315.2" rx="245.87" ry="18"/>
<text text-anchor="middle" x="245.87" y="-310.53" font-family="Times,serif" font-size="14.00">DOWNLOAD_DATA:DOWNLOAD_OTHER_DATA</text>
</g>
<!-- v5&#45;&gt;v6 -->
<g id="edge6" class="edge">
<title>v5&#45;&gt;v6</title>
<path fill="none" stroke="black" d="M697.47,-427.81C667.42,-420.38 445.58,-365.56 324.39,-335.61"/>
<polygon fill="black" stroke="black" points="325.36,-332.24 314.82,-333.24 323.68,-339.04 325.36,-332.24"/>
</g>
<!-- v7 -->
<g id="node9" class="node">
<title>v7</title>
<ellipse fill="none" stroke="black" cx="464.87" cy="-236" rx="274.8" ry="18"/>
<text text-anchor="middle" x="464.87" y="-231.32" font-family="Times,serif" font-size="14.00">DOWNLOAD_DATA:DOWNLOAD_OPEN_GWAS_DATA</text>
</g>
<!-- v5&#45;&gt;v7 -->
<g id="edge7" class="edge">
<title>v5&#45;&gt;v7</title>
<path fill="none" stroke="black" d="M698.53,-426.75C679.86,-411.59 553.98,-309.36 495.11,-261.56"/>
<polygon fill="black" stroke="black" points="497.41,-258.91 487.44,-255.33 492.99,-264.35 497.41,-258.91"/>
</g>
<!-- v8 -->
<g id="node10" class="node">
<title>v8</title>
<ellipse fill="none" stroke="black" cx="685.87" cy="-156.8" rx="205.88" ry="18"/>
<text text-anchor="middle" x="685.87" y="-152.12" font-family="Times,serif" font-size="14.00">DOWNLOAD_DATA:LINK_LOCAL_DATA</text>
</g>
<!-- v5&#45;&gt;v8 -->
<g id="edge8" class="edge">
<title>v5&#45;&gt;v8</title>
<path fill="none" stroke="black" d="M703.77,-426.79C714.99,-419.34 754.87,-390.44 754.87,-355.8 754.87,-355.8 754.87,-355.8 754.87,-235 754.87,-213.46 739.75,-195.17 723.67,-181.81"/>
<polygon fill="black" stroke="black" points="725.98,-179.17 715.93,-175.83 721.7,-184.71 725.98,-179.17"/>
</g>
<!-- v11 -->
<g id="node11" class="node">
<title>v11</title>
<ellipse fill="none" stroke="black" cx="948.87" cy="-354.8" rx="3.6" ry="3.6"/>
<text text-anchor="middle" x="915.27" y="-362.35" font-family="Times,serif" font-size="14.00">combine</text>
</g>
<!-- v5&#45;&gt;v11 -->
<g id="edge9" class="edge">
<title>v5&#45;&gt;v11</title>
<path fill="none" stroke="black" d="M703.88,-427.11C713.2,-422.32 742.33,-407.22 765.87,-393.65 778.53,-386.35 780.1,-381.3 793.87,-376.4 842.87,-358.95 905.36,-356.08 933.69,-355.74"/>
<polygon fill="black" stroke="black" points="933.38,-359.24 943.38,-355.73 933.38,-352.24 933.38,-359.24"/>
</g>
<!-- v15 -->
<g id="node12" class="node">
<title>v15</title>
<ellipse fill="none" stroke="black" cx="483.87" cy="-44.2" rx="3.6" ry="3.6"/>
<text text-anchor="middle" x="457.02" y="-51.75" font-family="Times,serif" font-size="14.00">concat</text>
</g>
<!-- v6&#45;&gt;v15 -->
<g id="edge10" class="edge">
<title>v6&#45;&gt;v15</title>
<path fill="none" stroke="black" d="M215.76,-297C196.41,-283.49 174.87,-262.67 174.87,-237 174.87,-237 174.87,-237 174.87,-101.8 174.87,-41.34 406.67,-43.15 468.74,-44.72"/>
<polygon fill="black" stroke="black" points="468.35,-48.21 478.45,-45.01 468.56,-41.21 468.35,-48.21"/>
</g>
<!-- v7&#45;&gt;v15 -->
<g id="edge11" class="edge">
<title>v7&#45;&gt;v15</title>
<path fill="none" stroke="black" d="M466.59,-217.82C470.31,-180.62 479.06,-93.22 482.47,-59.15"/>
<polygon fill="black" stroke="black" points="485.94,-59.66 483.45,-49.37 478.97,-58.97 485.94,-59.66"/>
</g>
<!-- v8&#45;&gt;v15 -->
<g id="edge12" class="edge">
<title>v8&#45;&gt;v15</title>
<path fill="none" stroke="black" d="M626.81,-139.08C612.38,-134.04 597.26,-127.92 583.87,-120.8 548.23,-101.84 511.73,-70.66 494.33,-54.93"/>
<polygon fill="black" stroke="black" points="496.98,-52.61 487.26,-48.4 492.24,-57.76 496.98,-52.61"/>
</g>
<!-- v11&#45;&gt;v12 -->
<g id="edge15" class="edge">
<title>v11&#45;&gt;v12</title>
<path fill="none" stroke="black" d="M948.87,-350.87C948.87,-341.17 948.87,-309.69 948.87,-290.97"/>
<polygon fill="black" stroke="black" points="952.37,-291.05 948.87,-281.05 945.37,-291.05 952.37,-291.05"/>
</g>
<!-- v16 -->
<g id="node17" class="node">
<title>v16</title>
<ellipse fill="black" stroke="black" cx="483.87" cy="-1.8" rx="1.8" ry="1.8"/>
</g>
<!-- v15&#45;&gt;v16 -->
<g id="edge21" class="edge">
<title>v15&#45;&gt;v16</title>
<path fill="none" stroke="black" d="M483.87,-40.29C483.87,-35.17 483.87,-24.22 483.87,-15.47"/>
<polygon fill="black" stroke="black" points="487.37,-15.54 483.87,-5.54 480.37,-15.54 487.37,-15.54"/>
</g>
<!-- v10&#45;&gt;v11 -->
<g id="edge14" class="edge">
<title>v10&#45;&gt;v11</title>
<path fill="none" stroke="black" d="M1045.01,-411.39C1018.5,-396.06 981.06,-374.41 961.65,-363.19"/>
<polygon fill="black" stroke="black" points="963.52,-360.23 953.11,-358.25 960.01,-366.29 963.52,-360.23"/>
</g>
<!-- v12&#45;&gt;v13 -->
<g id="edge17" class="edge">
<title>v12&#45;&gt;v13</title>
<path fill="none" stroke="black" d="M947.47,-272.03C942.29,-262.51 923.95,-228.8 913.79,-210.12"/>
<polygon fill="black" stroke="black" points="916.89,-208.5 909.04,-201.39 910.74,-211.84 916.89,-208.5"/>
</g>
<!-- v14 -->
<g id="node16" class="node">
<title>v14</title>
<ellipse fill="none" stroke="black" cx="885.87" cy="-102.8" rx="292.69" ry="18"/>
<text text-anchor="middle" x="885.87" y="-98.13" font-family="Times,serif" font-size="14.00">DOWNLOAD_DATA:DOWNLOAD_GWAS_CATALOG_DATA</text>
</g>
<!-- v13&#45;&gt;v14 -->
<g id="edge19" class="edge">
<title>v13&#45;&gt;v14</title>
<path fill="none" stroke="black" d="M906.26,-192.76C904.24,-183.91 897.53,-154.65 892.35,-132.07"/>
<polygon fill="black" stroke="black" points="895.8,-131.46 890.15,-122.49 888.98,-133.02 895.8,-131.46"/>
</g>
<!-- v14&#45;&gt;v15 -->
<g id="edge20" class="edge">
<title>v14&#45;&gt;v15</title>
<path fill="none" stroke="black" d="M772.02,-85.77C674.4,-72.03 542.78,-53.5 498.84,-47.31"/>
<polygon fill="black" stroke="black" points="499.37,-43.85 488.98,-45.92 498.39,-50.78 499.37,-43.85"/>
</g>
</g>
</svg>
